<mxfile host="app.diagrams.net" modified="2022-07-07T13:01:22.214Z" agent="5.0 (Windows NT 10.0; Win64; x64) AppleWebKit/537.36 (KHTML, like Gecko) Chrome/103.0.0.0 Safari/537.36" etag="DPvKMI0d5TwFy1FS58Jw" version="20.0.4" type="github">
  <diagram id="aOtgQE7OuU3fgdGQewVl" name="Page-1">
    <mxGraphModel dx="868" dy="460" grid="1" gridSize="10" guides="1" tooltips="1" connect="1" arrows="1" fold="1" page="1" pageScale="1" pageWidth="850" pageHeight="1100" math="0" shadow="0">
      <root>
        <mxCell id="0" />
        <mxCell id="1" parent="0" />
        <mxCell id="77n6GDugIrFk8qMnGh7A-7" style="edgeStyle=orthogonalEdgeStyle;rounded=0;orthogonalLoop=1;jettySize=auto;html=1;entryX=0;entryY=0.5;entryDx=0;entryDy=0;" edge="1" parent="1" source="77n6GDugIrFk8qMnGh7A-1" target="77n6GDugIrFk8qMnGh7A-2">
          <mxGeometry relative="1" as="geometry">
            <Array as="points">
              <mxPoint x="125" y="210" />
              <mxPoint x="340" y="210" />
            </Array>
          </mxGeometry>
        </mxCell>
        <mxCell id="77n6GDugIrFk8qMnGh7A-8" style="edgeStyle=orthogonalEdgeStyle;rounded=0;orthogonalLoop=1;jettySize=auto;html=1;exitX=1;exitY=0.3333333333333333;exitDx=0;exitDy=0;exitPerimeter=0;entryX=0;entryY=0.5;entryDx=0;entryDy=0;" edge="1" parent="1" source="77n6GDugIrFk8qMnGh7A-1" target="77n6GDugIrFk8qMnGh7A-3">
          <mxGeometry relative="1" as="geometry">
            <Array as="points">
              <mxPoint x="140" y="280" />
              <mxPoint x="330" y="280" />
            </Array>
          </mxGeometry>
        </mxCell>
        <mxCell id="77n6GDugIrFk8qMnGh7A-10" style="edgeStyle=orthogonalEdgeStyle;rounded=0;orthogonalLoop=1;jettySize=auto;html=1;exitX=0.5;exitY=0.5;exitDx=0;exitDy=0;exitPerimeter=0;entryX=0;entryY=0.5;entryDx=0;entryDy=0;" edge="1" parent="1" source="77n6GDugIrFk8qMnGh7A-1" target="77n6GDugIrFk8qMnGh7A-9">
          <mxGeometry relative="1" as="geometry">
            <Array as="points">
              <mxPoint x="180" y="310" />
              <mxPoint x="180" y="360" />
              <mxPoint x="335" y="360" />
            </Array>
          </mxGeometry>
        </mxCell>
        <mxCell id="77n6GDugIrFk8qMnGh7A-12" style="edgeStyle=orthogonalEdgeStyle;rounded=0;orthogonalLoop=1;jettySize=auto;html=1;exitX=1;exitY=1;exitDx=0;exitDy=0;exitPerimeter=0;entryX=0;entryY=0.5;entryDx=0;entryDy=0;" edge="1" parent="1" source="77n6GDugIrFk8qMnGh7A-1" target="77n6GDugIrFk8qMnGh7A-11">
          <mxGeometry relative="1" as="geometry" />
        </mxCell>
        <mxCell id="77n6GDugIrFk8qMnGh7A-1" value="User" style="shape=umlActor;verticalLabelPosition=bottom;verticalAlign=top;html=1;outlineConnect=0;" vertex="1" parent="1">
          <mxGeometry x="110" y="280" width="30" height="60" as="geometry" />
        </mxCell>
        <mxCell id="77n6GDugIrFk8qMnGh7A-2" value="Login" style="ellipse;whiteSpace=wrap;html=1;" vertex="1" parent="1">
          <mxGeometry x="340" y="180" width="100" height="50" as="geometry" />
        </mxCell>
        <mxCell id="77n6GDugIrFk8qMnGh7A-3" value="Maintain Financial Activities&amp;nbsp;" style="ellipse;whiteSpace=wrap;html=1;" vertex="1" parent="1">
          <mxGeometry x="330" y="260" width="120" height="50" as="geometry" />
        </mxCell>
        <mxCell id="77n6GDugIrFk8qMnGh7A-9" value="Maintain Expense Limit&amp;nbsp;" style="ellipse;whiteSpace=wrap;html=1;" vertex="1" parent="1">
          <mxGeometry x="335" y="330" width="115" height="50" as="geometry" />
        </mxCell>
        <mxCell id="77n6GDugIrFk8qMnGh7A-11" value="View Expenses Dashboard" style="ellipse;whiteSpace=wrap;html=1;" vertex="1" parent="1">
          <mxGeometry x="335" y="400" width="115" height="50" as="geometry" />
        </mxCell>
        <mxCell id="77n6GDugIrFk8qMnGh7A-13" value="Add Income" style="ellipse;whiteSpace=wrap;html=1;" vertex="1" parent="1">
          <mxGeometry x="550" y="200" width="100" height="50" as="geometry" />
        </mxCell>
        <mxCell id="77n6GDugIrFk8qMnGh7A-14" value="" style="endArrow=classic;startArrow=classic;html=1;rounded=0;exitX=0.983;exitY=0.26;exitDx=0;exitDy=0;exitPerimeter=0;" edge="1" parent="1" source="77n6GDugIrFk8qMnGh7A-3">
          <mxGeometry width="50" height="50" relative="1" as="geometry">
            <mxPoint x="500" y="280" as="sourcePoint" />
            <mxPoint x="550" y="230" as="targetPoint" />
          </mxGeometry>
        </mxCell>
        <mxCell id="77n6GDugIrFk8qMnGh7A-15" value="Add Expenses" style="ellipse;whiteSpace=wrap;html=1;" vertex="1" parent="1">
          <mxGeometry x="550" y="270" width="100" height="50" as="geometry" />
        </mxCell>
        <mxCell id="77n6GDugIrFk8qMnGh7A-16" value="" style="endArrow=classic;startArrow=classic;html=1;rounded=0;entryX=0;entryY=0.5;entryDx=0;entryDy=0;exitX=1;exitY=0.5;exitDx=0;exitDy=0;" edge="1" parent="1" source="77n6GDugIrFk8qMnGh7A-3" target="77n6GDugIrFk8qMnGh7A-15">
          <mxGeometry width="50" height="50" relative="1" as="geometry">
            <mxPoint x="400" y="330" as="sourcePoint" />
            <mxPoint x="450" y="280" as="targetPoint" />
          </mxGeometry>
        </mxCell>
        <mxCell id="77n6GDugIrFk8qMnGh7A-17" value="&amp;lt;&amp;lt;include&amp;gt;&amp;gt;" style="text;html=1;strokeColor=none;fillColor=none;align=center;verticalAlign=middle;whiteSpace=wrap;rounded=0;" vertex="1" parent="1">
          <mxGeometry x="470" y="230" width="60" height="30" as="geometry" />
        </mxCell>
        <mxCell id="77n6GDugIrFk8qMnGh7A-19" value="&amp;lt;&amp;lt;include&amp;gt;&amp;gt;" style="text;html=1;strokeColor=none;fillColor=none;align=center;verticalAlign=middle;whiteSpace=wrap;rounded=0;" vertex="1" parent="1">
          <mxGeometry x="470" y="290" width="60" height="30" as="geometry" />
        </mxCell>
        <mxCell id="77n6GDugIrFk8qMnGh7A-20" value="Set Limit" style="ellipse;whiteSpace=wrap;html=1;" vertex="1" parent="1">
          <mxGeometry x="550" y="340" width="100" height="50" as="geometry" />
        </mxCell>
        <mxCell id="77n6GDugIrFk8qMnGh7A-21" value="" style="endArrow=classic;startArrow=classic;html=1;rounded=0;entryX=0;entryY=0.5;entryDx=0;entryDy=0;exitX=1;exitY=0.5;exitDx=0;exitDy=0;" edge="1" parent="1" source="77n6GDugIrFk8qMnGh7A-9" target="77n6GDugIrFk8qMnGh7A-20">
          <mxGeometry width="50" height="50" relative="1" as="geometry">
            <mxPoint x="400" y="330" as="sourcePoint" />
            <mxPoint x="450" y="280" as="targetPoint" />
          </mxGeometry>
        </mxCell>
        <mxCell id="77n6GDugIrFk8qMnGh7A-22" value="&amp;lt;&amp;lt;include&amp;gt;&amp;gt;" style="text;html=1;strokeColor=none;fillColor=none;align=center;verticalAlign=middle;whiteSpace=wrap;rounded=0;" vertex="1" parent="1">
          <mxGeometry x="470" y="350" width="60" height="30" as="geometry" />
        </mxCell>
      </root>
    </mxGraphModel>
  </diagram>
</mxfile>
